# xmcd CD database file
#
# Track frame offsets:
#	150
#	12423
#	27962
#	40433
#	59806
#	76222
#	91174
#	112278
#	127045
#	137002
#
# Disc length: 1954 seconds
#
# Revision: 1
# Processed by: cddbd v1.5.2PL0 Copyright (c) Steve Scherf et al.
# Submitted via: CDex 1.70beta2
#
DISCID=8c07a00a
DTITLE=Bertram, B.J. [CDN-12-Country) - A Son of the Maple Leaf
DYEAR=2012
DGENRE=Country
TTITLE0=A Son of the Maple Leaf
TTITLE1=My Darlin' Dosn't Do It Anymore
TTITLE2=Swing Shift Workin' Man
TTITLE3=She'll Sleep in the Arms of Angles Tonight
TTITLE4=It Takes A Little Bit
TTITLE5=WillThere Be Room in Heaven For Me
TTITLE6=Dina's Song
TTITLE7=Gotta Get Back Home
TTITLE8=The Chocolate Song
TTITLE9=You Got To Hell and I'm Goin' Fishin'
EXTD=YEAR: 2012
EXTT0=
EXTT1=
EXTT2=
EXTT3=
EXTT4=
EXTT5=
EXTT6=
EXTT7=
EXTT8=
EXTT9=
PLAYORDER=
